<svg id="nepal-map" xmlns="http://www.w3.org/2000/svg" xmlns:xlink="http://www.w3.org/1999/xlink" style="isolation:isolate" viewBox="0 0 4336 2700">
    <defs>
        <clipPath id="_clipPath_BEoqkts541RJ6sw5oTwvDaQCUFleqR3H">
            <rect width="4336" height="2700"/>
        </clipPath>
    </defs>
    <g clip-path="url(#_clipPath_BEoqkts541RJ6sw5oTwvDaQCUFleqR3H)">
        <path id="map-outline" d=" M 3338 1596 L 3336 1620 L 3316 1644 L 3314 1681 L 3291 1687 L 3280 1706 L 3263 1709 L 3249 1692 L 3232 1692 L 3227 1676 L 3217 1684 L 3202 1670 L 3173 1668 L 3163 1610 L 3172 1603 L 3155 1562 L 3148 1565 L 3150 1578 L 3134 1588 L 3123 1605 L 3106 1606 L 3110 1620 L 3101 1644 L 3123 1696 L 3092 1714 L 3056 1662 L 3014 1627 L 3013 1596 L 3001 1588 L 2990 1557 L 2974 1545 L 2967 1549 L 2941 1525 L 2923 1445 L 2910 1446 L 2911 1465 L 2902 1465 L 2900 1488 L 2873 1514 L 2869 1488 L 2824 1474 L 2779 1477 L 2761 1504 L 2743 1490 L 2720 1498 L 2703 1495 L 2677 1470 L 2668 1477 L 2631 1465 L 2640 1441 L 2627 1405 L 2636 1389 L 2653 1385 L 2658 1363 L 2670 1362 L 2663 1329 L 2670 1322 L 2670 1303 L 2655 1303 L 2633 1279 L 2621 1286 L 2607 1281 L 2571 1329 L 2554 1337 L 2552 1329 L 2529 1329 L 2508 1342 L 2429 1305 L 2435 1288 L 2432 1283 L 2421 1283 L 2396 1250 L 2373 1251 L 2363 1241 L 2333 1252 L 2305 1232 L 2305 1203 L 2287 1198 L 2290 1186 L 2276 1179 L 2249 1179 L 2223 1162 L 2203 1162 L 2214 1085 L 2201 1074 L 2184 1077 L 2187 1032 L 2178 1028 L 2172 1001 L 2190 984 L 2190 973 L 2149 967 L 2152 951 L 2139 941 L 2127 945 L 2114 935 L 2105 945 L 2087 936 L 2093 932 L 2082 921 L 2069 927 L 2045 923 L 2020 937 L 2002 936 L 1993 949 L 1993 964 L 1952 967 L 1926 991 L 1928 1001 L 1914 1015 L 1903 1004 L 1886 1003 L 1885 991 L 1866 990 L 1857 962 L 1844 948 L 1833 950 L 1820 932 L 1823 920 L 1809 906 L 1808 868 L 1787 865 L 1773 845 L 1773 828 L 1759 821 L 1744 825 L 1733 806 L 1732 794 L 1741 789 L 1710 775 L 1712 767 L 1702 763 L 1685 772 L 1685 760 L 1663 753 L 1647 767 L 1610 729 L 1584 733 L 1577 712 L 1525 717 L 1518 702 L 1491 696 L 1486 677 L 1456 675 L 1455 666 L 1480 649 L 1460 626 L 1422 636 L 1431 618 L 1412 607 L 1393 571 L 1378 562 L 1363 575 L 1312 531 L 1303 531 L 1303 539 L 1296 539 L 1284 520 L 1265 525 L 1242 505 L 1205 507 L 1211 483 L 1203 477 L 1219 459 L 1209 454 L 1209 437 L 1188 433 L 1168 410 L 1183 375 L 1173 351 L 1154 344 L 1148 358 L 1131 352 L 1115 365 L 1100 354 L 1100 347 L 1088 351 L 1056 333 L 1000 328 L 944 294 L 933 295 L 929 314 L 908 306 L 902 336 L 872 331 L 849 312 L 832 312 L 829 322 L 840 330 L 828 337 L 826 363 L 839 374 L 830 381 L 836 387 L 826 403 L 828 422 L 797 459 L 785 455 L 761 461 L 776 483 L 768 519 L 751 529 L 755 534 L 745 542 L 737 534 L 693 534 L 678 515 L 686 496 L 674 489 L 674 461 L 652 435 L 603 444 L 594 422 L 566 450 L 575 472 L 518 517 L 514 541 L 499 545 L 477 568 L 444 568 L 431 582 L 418 629 L 392 647 L 390 660 L 361 653 L 345 660 L 342 680 L 328 685 L 336 727 L 352 750 L 333 791 L 316 794 L 314 803 L 322 806 L 299 835 L 288 839 L 295 851 L 269 854 L 267 874 L 283 886 L 285 912 L 302 930 L 291 994 L 269 983 L 280 1023 L 262 1037 L 238 1027 L 220 1045 L 210 1085 L 215 1097 L 206 1114 L 198 1111 L 177 1147 L 184 1200 L 204 1200 L 253 1239 L 269 1239 L 280 1247 L 272 1254 L 304 1271 L 306 1288 L 323 1304 L 363 1306 L 374 1317 L 376 1335 L 400 1353 L 407 1339 L 393 1290 L 410 1276 L 435 1280 L 435 1299 L 473 1302 L 478 1324 L 485 1324 L 485 1333 L 495 1343 L 522 1345 L 531 1367 L 569 1385 L 569 1379 L 584 1377 L 594 1405 L 605 1398 L 605 1406 L 613 1410 L 625 1406 L 617 1417 L 643 1407 L 642 1416 L 650 1421 L 643 1428 L 649 1436 L 652 1429 L 672 1445 L 736 1458 L 748 1477 L 748 1497 L 790 1547 L 790 1563 L 780 1565 L 794 1575 L 789 1583 L 814 1578 L 816 1561 L 838 1561 L 868 1591 L 867 1611 L 946 1660 L 973 1664 L 1063 1735 L 1083 1735 L 1105 1697 L 1154 1699 L 1178 1730 L 1220 1742 L 1337 1832 L 1460 1811 L 1465 1839 L 1480 1858 L 1477 1872 L 1488 1882 L 1477 1929 L 1573 1931 L 1584 1949 L 1619 1958 L 1698 1956 L 1738 1995 L 1735 2006 L 1749 2021 L 1771 2022 L 1796 2000 L 1804 1979 L 1793 1965 L 1801 1956 L 1796 1943 L 1906 1948 L 2025 2016 L 2035 1997 L 2011 1972 L 2019 1961 L 2037 1968 L 2064 1959 L 2105 1968 L 2116 1962 L 2144 1921 L 2166 1923 L 2166 1938 L 2193 1948 L 2194 1962 L 2216 1958 L 2234 1995 L 2393 2019 L 2426 2083 L 2421 2152 L 2405 2171 L 2405 2178 L 2459 2203 L 2467 2195 L 2476 2205 L 2492 2193 L 2508 2200 L 2508 2209 L 2525 2222 L 2560 2226 L 2566 2237 L 2562 2249 L 2578 2251 L 2578 2262 L 2604 2264 L 2590 2284 L 2621 2284 L 2631 2273 L 2670 2275 L 2663 2309 L 2681 2338 L 2740 2345 L 2775 2317 L 2799 2322 L 2869 2281 L 2910 2294 L 2927 2303 L 2934 2315 L 2934 2392 L 2967 2409 L 2974 2420 L 2990 2418 L 2990 2438 L 3028 2413 L 3039 2415 L 3044 2395 L 3077 2387 L 3131 2406 L 3131 2418 L 3155 2413 L 3159 2425 L 3170 2428 L 3186 2413 L 3227 2413 L 3306 2454 L 3328 2456 L 3338 2478 L 3421 2516 L 3435 2499 L 3467 2509 L 3497 2497 L 3497 2484 L 3516 2482 L 3516 2467 L 3557 2459 L 3572 2425 L 3588 2449 L 3594 2502 L 3620 2525 L 3640 2528 L 3640 2522 L 3675 2525 L 3680 2544 L 3701 2544 L 3717 2559 L 3728 2525 L 3777 2509 L 3816 2522 L 3834 2541 L 3865 2535 L 3865 2527 L 3878 2522 L 3879 2510 L 3905 2527 L 3913 2520 L 3922 2525 L 3932 2495 L 3961 2510 L 3981 2485 L 3991 2497 L 3986 2505 L 3998 2506 L 4000 2522 L 4031 2535 L 4033 2550 L 4051 2550 L 4052 2535 L 4079 2516 L 4079 2497 L 4088 2485 L 4082 2459 L 4114 2400 L 4126 2329 L 4120 2277 L 4101 2260 L 4107 2247 L 4094 2232 L 4101 2213 L 4079 2201 L 4073 2185 L 4053 2184 L 4030 2140 L 4044 2111 L 4041 2083 L 4048 2055 L 4068 2021 L 4057 2003 L 4059 1982 L 4072 1968 L 4057 1934 L 4072 1891 L 4107 1838 L 4110 1804 L 4123 1794 L 4131 1775 L 4122 1756 L 4133 1744 L 4131 1737 L 4101 1721 L 4082 1730 L 4076 1714 L 4067 1719 L 4051 1709 L 4029 1719 L 4003 1702 L 3971 1706 L 3964 1684 L 3954 1682 L 3950 1702 L 3929 1712 L 3927 1730 L 3901 1764 L 3874 1764 L 3874 1748 L 3859 1748 L 3848 1761 L 3836 1756 L 3836 1740 L 3822 1730 L 3810 1742 L 3788 1741 L 3769 1754 L 3748 1748 L 3758 1743 L 3752 1733 L 3724 1751 L 3703 1753 L 3678 1738 L 3662 1754 L 3637 1756 L 3604 1743 L 3600 1724 L 3547 1662 L 3519 1668 L 3485 1644 L 3460 1650 L 3432 1638 L 3426 1630 L 3435 1616 L 3410 1596 L 3393 1599 L 3371 1616 L 3338 1596 Z " fill="maroon" fill-opacity="0.6" vector-effect="non-scaling-stroke" stroke-width="1" stroke="rgb(0,0,0)" stroke-linejoin="miter" stroke-linecap="square" stroke-miterlimit="3"/>
        <circle id="gaunsahar" vector-effect="non-scaling-stroke" cx="2270.456575682382" cy="1540.5434243176178" r="10" fill="white"/>
        <g class="trek">
            <circle id="kathmandu" vector-effect="non-scaling-stroke" cx="2735.543424317618" cy="1812.543424317618" r="10" fill="white"/>
            <circle id="lukla" vector-effect="non-scaling-stroke" cx="3414.1339950372208" cy="1830.304109314669" r="10" fill="white"/>
            <circle id="phakding" vector-effect="non-scaling-stroke" cx="3407.4193548387098" cy="1802.8351266843956" r="10" fill="white"/>
            <circle id="namche-bazaar" vector-effect="non-scaling-stroke" cx="3408.2332506203475" cy="1769.0584517464304" r="10" fill="white"/>
            <circle id="tengboche" vector-effect="non-scaling-stroke" cx="3429.1910669975186" cy="1754.2048537315422" r="10" fill="white"/>
            <circle id="dingboche" vector-effect="non-scaling-stroke" cx="3460.5260545905708" cy="1726.3289232104503" r="10" fill="white"/>
            <circle id="gorakshep" vector-effect="non-scaling-stroke" cx="3459.305210918114" cy="1681.564655220376" r="10" fill="white"/>
            <circle id="everest-base-camp" vector-effect="non-scaling-stroke" cx="3467.8511166253097" cy="1671.3909579499043" r="10" fill="white"/>
            <circle id="dhongla" vector-effect="non-scaling-stroke" cx="3434.684863523573" cy="1702.3189976521378" r="10" fill="white"/>
            <circle id="thame" vector-effect="non-scaling-stroke" cx="3379.5434243176173" cy="1757.460436858093" r="10" fill="white"/>
        </g>
    </g>
</svg>